<?xml version="1.0" encoding="UTF-8"?><svg id="Layer_1" xmlns="http://www.w3.org/2000/svg" viewBox="0 0 781.12 781.12"><defs><style>.cls-1{fill:#f8cb46;}.cls-2{fill:#1c1c1c;}.cls-3{fill:#0c831f;}</style></defs><rect class="cls-1" width="781.12" height="781.12" rx="165.15" ry="165.15"/><path class="cls-2" d="M148.85,346.15c10.92,0,20.68,2.73,29.26,8.19,8.66,5.38,15.45,13.03,20.37,22.94,4.76,9.52,7.14,20.72,7.14,33.59s-2.38,23.64-7.14,33.47c-4.76,9.83-11.47,17.51-20.13,23.05-8.74,5.62-18.57,8.42-29.5,8.42-7.96,0-15.45-1.64-22.47-4.91-7.02-3.28-13.03-7.88-18.02-13.81v15.75h-40.73v-167.53h40.73v59.45c4.99-5.93,11-10.49,18.02-13.69,7.02-3.28,14.51-4.92,22.47-4.92ZM136.68,441.99c5.77,0,10.92-1.33,15.45-3.98,4.53-2.65,8.08-6.36,10.65-11.12,2.58-4.68,3.86-10.03,3.86-16.03s-1.29-11.16-3.86-15.92c-2.57-4.76-6.13-8.47-10.65-11.12-4.53-2.65-9.68-3.98-15.45-3.98-5.46,0-10.34,1.33-14.63,3.98-4.29,2.58-7.65,6.2-10.07,10.88-2.42,4.76-3.63,10.14-3.63,16.15s1.21,11.39,3.63,16.15c2.42,4.68,5.77,8.35,10.07,11,4.29,2.65,9.17,3.98,14.63,3.98Z"/><path class="cls-2" d="M211.19,472.84v-167.53h40.73v167.53h-40.73Z"/><path class="cls-2" d="M263.47,472.84v-123.91h40.5v123.91h-40.5Z"/><path class="cls-2" d="M391.94,346.15c8.66,0,16.47,2.03,23.41,6.09,6.95,3.98,12.41,9.6,16.39,16.85,3.83,7.33,5.74,15.64,5.74,24.93v78.83h-38.86v-69.7c0-4.53-.9-8.54-2.69-12.05-1.72-3.59-4.17-6.36-7.37-8.31-3.12-1.95-6.79-2.93-11-2.93-3.98,0-7.65.98-11,2.93-3.36,1.87-5.97,4.45-7.84,7.72-1.95,3.12-2.93,6.79-2.93,11l-.23,71.34h-40.5v-123.88h40.5v14.16c3.82-5.3,8.93-9.44,15.33-12.41,6.4-3.04,13.42-4.56,21.07-4.56Z"/><path class="cls-2" d="M526.97,403.14l45.95,69.7h-46l-26.87-43.84-12.41,14.39v29.44h-40.73v-167.53h40.73v92.57l39.16-48.98,45.97.03-45.8,54.22Z"/><path class="cls-2" d="M263.45,305.32h40.63v31.71h-40.63v-31.71Z"/><path class="cls-3" d="M579.11,472.85v-123.92h40.63v123.92h-40.63Z"/><path class="cls-3" d="M705.56,437.53l8.07,26.1c-3.67,3.51-8.31,6.36-13.93,8.54-5.54,2.18-10.96,3.28-16.27,3.28-7.65,0-14.48-1.68-20.48-5.03-6.01-3.43-10.69-8.19-14.05-14.28-3.35-5.93-5.03-12.75-5.03-20.48v-54.68h-16.27v-32.05h16.27v-43.6h38.86v43.6h25.63v32.05h-25.63v47.19c0,3.98,1.05,7.22,3.16,9.71,2.11,2.5,4.8,3.74,8.08,3.74,2.34,0,4.52-.35,6.55-1.05,2.03-.7,3.71-1.72,5.03-3.04Z"/><path class="cls-3" d="M579.11,305.32h40.63v31.71h-40.63v-31.71Z"/></svg>