<svg width="714" height="708" viewBox="0 0 714 708" fill="none" xmlns="http://www.w3.org/2000/svg">
<path d="M712.871 122.588C712.571 121.588 712.269 120.588 711.871 119.588C474.971 119.688 238.171 119.588 1.37058 119.688C0.770579 120.388 0.37058 121.088 0.27058 121.988C0.27058 305.688 0.270579 489.287 0.168579 672.988C1.66858 682.787 7.06858 691.687 14.2706 698.388C14.5706 698.488 15.2706 698.585 15.5706 698.687C19.2706 702.585 24.5706 704.488 29.5706 706.287C33.2706 706.088 36.8706 707.687 40.5706 707.287H334.571C337.371 707.187 340.269 707.687 342.969 706.588C343.071 706.19 343.169 705.488 343.269 705.088C343.371 704.588 343.469 703.488 343.57 702.889C349.871 667.69 355.969 632.389 362.671 597.19L363.271 592.69C336.072 592.588 308.771 592.69 281.572 592.588C274.971 592.389 268.173 592.588 261.572 591.787C250.273 591.287 238.873 591.687 227.573 590.588C213.573 590.588 199.673 589.287 185.673 589.287C174.673 588.187 163.573 588.588 152.473 588.088C145.275 587.19 137.873 587.588 130.575 587.287C118.675 585.988 106.575 586.889 94.6746 585.588C82.0746 585.69 69.4746 584.588 56.8746 584.287C56.9746 584.187 57.0746 583.787 57.0746 583.687C61.2746 583.787 65.3746 583.488 69.5746 583.388C78.8746 582.187 88.2746 582.988 97.5746 581.687C107.275 581.687 116.875 580.388 126.575 580.388C135.175 579.187 143.875 579.888 152.473 578.687C162.575 578.687 172.473 577.388 182.575 577.287C190.875 576.187 199.275 576.787 207.575 575.687C217.275 575.787 226.875 574.287 236.575 574.388C246.075 573.286 255.773 573.585 265.273 572.585C264.375 568.888 263.673 565.187 262.875 561.485C262.175 559.186 259.375 559.686 257.575 559.385C235.875 556.283 214.275 553.186 192.675 550.186C194.075 549.084 195.975 549.584 197.575 549.385C214.375 548.084 231.075 546.584 247.875 545.385C251.675 545.186 255.375 544.485 259.175 544.385C257.475 539.186 256.475 533.485 254.175 528.686C218.277 523.186 182.375 518.286 146.575 512.385C155.875 510.885 165.275 510.186 174.575 509.186L175.375 508.885C205.075 505.783 234.875 502.283 264.575 499.385C302.273 499.186 339.875 499.283 377.575 499.385C378.773 499.186 380.875 499.783 381.075 498.084C384.175 481.885 387.175 465.686 390.273 449.484C394.573 426.986 401.373 404.785 411.873 384.285C428.373 351.285 454.473 323.285 486.271 304.686C515.971 287.286 550.373 278.886 584.573 277.286C595.673 276.286 606.873 276.586 617.873 277.986C625.073 279.686 632.473 281.686 638.173 286.586C642.873 290.386 645.673 295.986 647.773 301.586C652.375 314.886 654.973 328.686 657.173 342.586C657.273 348.186 658.273 354.486 655.273 359.586C652.473 364.586 646.875 366.986 641.574 368.486C622.273 373.486 602.074 368.785 582.773 373.486C566.875 376.886 552.074 385.685 541.973 398.386C530.074 413.185 523.773 431.583 520.273 449.986C517.574 466.386 514.173 482.785 511.473 499.285C530.473 499.387 549.574 499.185 568.673 499.387C576.273 499.387 584.073 503.586 587.173 510.785C591.173 519.986 590.273 530.387 588.973 540.086C587.373 550.986 584.773 561.785 579.873 571.785C575.771 580.285 568.973 588.086 559.673 591.086C554.873 592.986 549.673 592.586 544.573 592.586C527.771 592.586 510.971 592.785 494.173 592.586C491.473 604.887 489.673 617.486 487.273 629.986C482.875 654.285 478.574 678.685 474.173 703.086C474.073 703.887 473.973 705.586 473.973 706.486C481.873 706.886 489.773 706.486 497.673 706.685C556.273 706.685 614.973 706.583 673.673 706.685C679.973 706.886 686.373 705.386 691.873 702.285C695.173 701.086 697.173 698.185 700.073 696.586C702.873 694.986 703.673 691.688 706.073 689.586C708.673 684.986 711.373 680.188 711.573 674.785C711.873 674.785 712.673 674.685 713.073 674.586C712.769 490.588 713.071 306.588 712.871 122.588Z" fill="url(#paint0_linear_13_84)" stroke="#FCD109" stroke-width="0.094"/>
<path d="M93.4706 1.588C101.971 -1.112 110.871 0.688002 119.573 0.0880016C282.873 0.188002 446.173 0.0880016 609.471 0.0880016C619.171 -0.311998 627.671 5.188 636.671 7.988C643.871 10.888 651.371 13.188 658.571 16.288C660.071 16.888 661.171 18.188 662.269 19.288C662.169 32.488 662.269 45.788 662.269 59.088C662.371 62.588 661.769 66.188 662.969 69.588C665.071 69.888 666.169 71.488 667.571 72.788C674.171 75.788 679.769 80.688 685.769 84.688C694.769 91.088 704.371 96.688 713.169 103.288C713.568 105.888 713.269 108.588 712.469 110.988C711.571 113.788 712.169 116.788 711.869 119.588C474.969 119.688 238.169 119.588 1.36863 119.688C0.868634 116.388 1.76863 113.088 0.368634 109.988C0.168634 107.388 -0.731364 103.988 1.76864 102.188C11.7686 95.188 22.3686 88.888 32.1666 81.488C38.2686 77.588 44.1666 73.588 50.0666 69.588C51.2666 67.588 50.8666 65.088 50.8666 62.888C50.8666 48.388 50.8666 33.888 50.9666 19.388C54.3666 14.988 60.2686 14.488 64.9666 12.288C74.4706 8.688 84.0706 5.188 93.4706 1.588ZM94.0706 3.288C81.2706 8.188 68.3706 12.888 55.5706 17.788C53.8706 18.088 52.9686 19.588 52.0706 20.888C52.1706 21.688 52.2706 23.088 52.2706 23.888C52.1686 35.888 52.2706 47.888 52.1686 59.888C52.2706 62.888 51.8686 65.888 52.9686 68.588C51.6686 69.888 50.2706 71.188 48.6686 72.188C34.1686 81.588 20.1686 91.788 5.66863 101.088C3.16863 102.588 0.368633 104.588 1.16863 107.888C0.668633 109.688 1.56863 111.188 3.46863 110.688C34.8686 110.488 66.1686 110.888 97.5706 110.388C144.271 110.388 190.871 110.488 237.571 110.388L238.271 110.088C240.371 110.588 242.469 110.388 244.669 110.388C329.269 110.388 413.869 110.488 498.568 110.388C525.169 110.488 551.869 110.388 578.568 110.388C622.568 110.388 666.669 110.788 710.669 110.588C711.969 110.288 712.369 109.388 711.869 107.788C711.767 106.188 712.369 103.988 710.669 102.988C703.669 99.688 697.669 94.588 690.969 90.588C688.571 88.588 685.469 87.488 683.669 84.788C676.769 80.888 670.369 76.088 663.568 71.788C662.267 70.988 661.267 69.688 660.169 68.588C660.769 66.488 660.969 64.188 660.969 61.988C660.869 49.288 660.969 36.588 660.869 23.888C661.169 21.888 661.068 19.588 659.267 18.288C647.267 13.988 635.369 9.388 623.467 4.988C619.767 3.188 615.667 2.188 611.667 1.588H100.567C98.3706 1.688 96.2706 2.788 94.0706 3.288Z" fill="#F8F3B5" stroke="#F8F3B5" stroke-width="0.094"/>
<path d="M52.2706 23.8881C61.0706 27.5881 70.4686 29.6881 79.3706 33.2881C84.1706 35.1881 85.6706 40.3881 87.7706 44.5881C85.6686 46.6881 83.1686 48.3881 80.6686 49.9881C71.4686 56.1881 62.0686 62.1881 52.9686 68.5881C51.8686 65.8881 52.2706 62.8881 52.1686 59.8881C52.2706 47.8881 52.1706 35.8881 52.2706 23.8881ZM633.769 33.2881C642.669 29.7881 651.969 27.3881 660.871 23.8881C660.971 36.5881 660.871 49.2881 660.971 61.9881C660.971 64.1881 660.771 66.4881 660.171 68.5881C652.371 63.1881 644.471 58.0881 636.671 52.7881C632.871 49.9881 628.671 47.8881 625.271 44.4881C627.371 40.2881 628.971 35.1881 633.769 33.2881Z" fill="#F7B402" stroke="#F7B402" stroke-width="0.094"/>
<path d="M204.871 37.388C215.871 34.788 228.171 44.588 227.271 56.088C227.371 67.388 215.469 76.588 204.571 73.988C200.171 72.488 195.969 70.188 193.271 66.288C189.771 60.988 188.969 53.888 191.771 48.088C193.771 42.488 199.171 38.688 204.871 37.388ZM490.171 43.688C494.771 38.588 502.071 35.688 508.871 37.488C513.971 38.988 518.971 42.288 521.171 47.288C525.571 55.888 522.171 67.488 513.571 71.988C505.969 76.188 496.371 74.188 490.571 68.088C484.671 61.388 484.269 50.388 490.171 43.688Z" fill="#BDA727" stroke="#BDA727" stroke-width="0.094"/>
<path d="M80.6706 49.988C83.1706 48.388 85.6706 46.688 87.7726 44.588L88.4706 45.288C89.1706 50.488 88.6706 55.788 88.8706 60.988C88.5706 76.588 89.1706 92.288 88.4706 107.888C59.3706 107.888 30.2726 107.688 1.17061 107.888C0.370606 104.588 3.17061 102.588 5.67061 101.088C20.1706 91.788 34.1706 81.588 48.6706 72.188C50.2726 71.188 51.6706 69.888 52.9706 68.588C62.0706 62.188 71.4706 56.188 80.6706 49.988ZM624.269 47.988C624.269 46.688 624.571 45.588 625.269 44.488C628.669 47.888 632.871 49.988 636.669 52.788C644.469 58.088 652.369 63.188 660.169 68.588C661.269 69.688 662.269 70.988 663.568 71.788C670.369 76.088 676.767 80.888 683.669 84.788C685.469 87.488 688.568 88.588 690.969 90.588C697.669 94.588 703.669 99.688 710.669 102.988C712.369 103.988 711.769 106.188 711.869 107.788C682.767 107.888 653.767 107.688 624.669 107.888C624.169 103.888 624.469 99.888 624.369 95.988C624.371 79.988 624.171 63.988 624.269 47.988Z" fill="#F7E62D" stroke="#F7E62D" stroke-width="0.094"/>
<path d="M711.871 107.788C682.769 107.888 653.769 107.688 624.671 107.888C624.171 103.888 624.471 99.888 624.371 95.988C624.371 79.988 624.171 63.988 624.269 47.988C624.269 46.688 624.571 45.588 625.269 44.488C627.371 40.288 628.969 35.188 633.769 33.288C642.669 29.788 651.969 27.388 660.871 23.888C661.171 21.888 661.071 19.588 659.269 18.288C647.269 13.988 635.371 9.38801 623.469 4.98801C619.769 3.18801 615.669 2.18801 611.669 1.58801H100.569C98.3686 1.68801 96.2686 2.78801 94.0686 3.28801C81.2686 8.18801 68.3686 12.888 55.5686 17.788C53.8686 18.088 52.9666 19.588 52.0686 20.888C52.1686 21.688 52.2686 23.088 52.2686 23.888C61.0686 27.588 70.4666 29.688 79.3686 33.288C84.1686 35.188 85.6686 40.388 87.7686 44.588L88.4666 45.288C89.1666 50.488 88.6666 55.788 88.8666 60.988C88.5666 76.588 89.1666 92.288 88.4666 107.888C59.3666 107.888 30.2686 107.688 1.16657 107.888C0.666572 109.688 1.56657 111.188 3.46657 110.688C34.8666 110.488 66.1666 110.888 97.5686 110.388C144.269 110.388 190.869 110.488 237.569 110.388L238.269 110.088C240.369 110.588 242.467 110.388 244.667 110.388C329.267 110.388 413.867 110.488 498.566 110.388C525.167 110.488 551.867 110.388 578.566 110.388C622.566 110.388 666.667 110.788 710.667 110.588C711.971 110.288 712.371 109.388 711.871 107.788ZM191.771 48.088C193.771 42.488 199.169 38.688 204.871 37.388C215.871 34.788 228.171 44.588 227.271 56.088C227.371 67.388 215.469 76.588 204.571 73.988C200.171 72.488 195.969 70.188 193.271 66.288C189.771 60.988 188.971 53.888 191.771 48.088ZM490.171 43.688C494.771 38.588 502.071 35.688 508.871 37.488C513.971 38.988 518.971 42.288 521.171 47.288C525.571 55.888 522.171 67.488 513.571 71.988C505.969 76.188 496.371 74.188 490.571 68.088C484.671 61.388 484.269 50.388 490.171 43.688Z" fill="url(#paint1_radial_13_84)" stroke="#FCD109" stroke-width="0.094"/>
<path d="M515.659 151.734C517.057 152.034 508.371 143.388 510.071 142.988C511.671 143.188 517.737 138.479 525.071 142.321C532.403 146.163 530.585 155.154 529.753 158.488C528.763 162.456 526.237 164.988 524.237 166.988C523.137 167.888 520.671 169.288 519.171 169.188C520.071 164.288 517.171 163.488 516.971 158.488L515.659 151.734Z" fill="url(#paint2_linear_13_84)" stroke="#FCD109" stroke-width="0.094"/>
<path d="M195.986 157.155C195.786 162.155 192.884 162.955 193.786 167.855C192.286 167.955 189.818 166.555 188.719 165.655C186.719 163.655 184.196 161.123 183.204 157.155C182.372 153.822 180.553 144.831 187.886 140.988C195.219 137.145 201.286 141.854 202.886 141.655C204.586 142.055 195.9 150.701 197.298 150.401L195.986 157.155Z" fill="url(#paint3_linear_13_84)" stroke="#FCD109" stroke-width="0.094"/>
<path d="M502.567 215.794C504.071 214.488 505.071 214.488 507.071 214.488C495.071 240.488 481.071 266.488 460.022 286.731C457.77 288.741 455.393 290.604 452.903 292.309C450.493 294.072 448.131 295.726 445.782 297.411C443.482 299.008 441.196 300.614 438.97 302.289C433.27 305.389 428.27 309.69 421.97 311.589C410.47 317.089 398.072 320.789 385.572 323.389C380.672 324.19 375.672 325.389 370.672 325.489C364.472 327.29 357.872 325.989 351.572 326.389C348.072 326.989 344.97 324.989 341.572 325.389C338.622 324.972 335.679 324.472 332.754 323.888C329.785 323.281 326.837 322.581 323.913 321.789C278.071 307.488 233.071 272.488 219.961 225.153C219.37 221.965 219.072 218.73 219.071 215.488C220.47 218.288 221.921 221.068 223.422 223.822C242.071 264.488 279.071 296.488 322.783 306.137C326.331 307.755 330.171 307.188 333.572 308.588C336.672 308.588 339.672 308.488 342.672 309.488C352.972 309.687 363.272 309.588 373.572 309.588C374.97 309.688 376.27 308.988 377.672 308.688C394.838 308.106 411.658 303.424 427.319 296.324C430.453 294.904 433.539 293.387 436.572 291.787C439.227 290.39 441.819 288.875 444.34 287.249C446.816 285.653 449.224 283.953 451.557 282.153C470.071 267.488 486.071 248.488 496.936 226.639C499.004 222.707 500.896 219.066 502.567 215.794Z" fill="#BDA727" stroke="#BDA727" stroke-width="0.094"/>
<path d="M486.269 304.688C515.969 287.288 550.371 278.888 584.571 277.288C595.671 276.288 606.871 276.588 617.871 277.988C625.071 279.688 632.471 281.688 638.171 286.588C635.271 286.788 632.471 285.488 629.571 285.088C621.371 283.488 612.871 284.088 604.571 283.888C580.469 283.888 556.171 285.788 532.871 292.388C520.671 296.088 508.471 300.388 497.371 306.788C478.171 317.388 460.871 331.388 446.871 348.188C421.871 376.889 407.171 413.288 400.071 450.389C396.671 470.287 392.769 490.086 389.671 510.086C384.671 510.586 379.571 510.287 374.571 510.287C352.571 510.187 330.571 510.086 308.571 509.889C303.871 510.086 299.269 508.989 294.571 509.287C254.571 509.486 214.571 509.187 174.571 509.187L175.371 508.886C205.071 505.784 234.871 502.284 264.571 499.386C302.269 499.187 339.871 499.284 377.571 499.386C378.769 499.187 380.871 499.784 381.071 498.085C384.171 481.886 387.171 465.687 390.269 449.485C394.571 426.988 401.371 404.787 411.871 384.287C428.371 351.287 454.471 323.287 486.269 304.688Z" fill="#0D69B3" stroke="#0D69B3" stroke-width="0.094"/>
<path d="M532.871 292.388C556.171 285.788 580.471 283.888 604.571 283.888C612.871 284.088 621.371 283.488 629.571 285.088C632.469 285.488 635.269 286.788 638.171 286.588C642.871 290.388 645.671 295.988 647.771 301.588C652.373 314.888 654.971 328.688 657.171 342.588C657.271 348.188 658.271 354.488 655.271 359.588C652.471 364.588 646.873 366.988 641.572 368.488C622.271 373.488 602.072 368.787 582.771 373.488C566.873 376.888 552.072 385.687 541.971 398.388C530.072 413.187 523.771 431.585 520.271 449.988C517.572 466.388 514.171 482.787 511.471 499.287C510.271 502.988 509.572 506.988 508.871 510.889C527.769 511.19 546.671 510.889 565.571 511.088C572.769 510.889 579.969 511.287 587.171 510.787C591.171 519.988 590.271 530.389 588.971 540.088C587.371 550.988 584.771 561.787 579.871 571.787C575.769 580.287 568.971 588.088 559.671 591.088C554.871 592.988 549.671 592.588 544.571 592.588C527.769 592.588 510.969 592.787 494.171 592.588C491.471 604.889 489.671 617.488 487.271 629.988C482.873 654.287 478.572 678.687 474.171 703.088C474.071 703.889 473.971 705.588 473.971 706.488V706.588C430.271 706.588 386.671 706.69 342.971 706.588C343.072 706.19 343.171 705.488 343.271 705.088C343.373 704.588 343.471 703.488 343.572 702.889C343.673 703.69 343.771 705.19 343.873 705.889C346.572 706.19 351.473 707.588 352.173 703.69C358.973 666.889 365.273 629.889 372.273 593.088C369.574 592.488 366.773 592.488 363.973 592.988C363.575 594.388 363.173 595.787 362.673 597.187L363.273 592.687C336.075 592.585 308.773 592.687 281.575 592.585C274.973 592.388 268.175 592.585 261.575 591.786C250.275 591.286 238.875 591.686 227.575 590.585C213.575 590.585 199.675 589.286 185.675 589.286C174.675 588.186 163.575 588.585 152.475 588.085C145.277 587.187 137.875 587.585 130.577 587.286C118.677 585.985 106.577 586.888 94.6766 585.585C82.0766 585.687 69.4766 584.585 56.8766 584.286C56.9766 584.186 57.0766 583.786 57.0766 583.686C61.2766 583.786 65.3766 583.485 69.5766 583.385C78.8766 582.186 88.2766 582.985 97.5766 581.686C107.277 581.686 116.877 580.385 126.577 580.385C135.177 579.186 143.877 579.885 152.475 578.686C162.577 578.686 172.475 577.385 182.577 577.286C190.877 576.186 199.277 576.786 207.577 575.686C217.277 575.786 226.877 574.286 236.577 574.385C246.077 573.283 255.775 573.584 265.275 572.584C264.377 568.885 263.675 565.186 262.877 561.484C262.177 559.183 259.377 559.683 257.577 559.384C235.877 556.282 214.277 553.183 192.677 550.183C194.077 549.081 195.977 549.581 197.577 549.384C214.377 548.081 231.077 546.581 247.877 545.384C251.677 545.183 255.377 544.484 259.177 544.384C257.477 539.183 256.477 533.484 254.177 528.683C218.279 523.183 182.377 518.283 146.577 512.384C155.877 510.884 165.277 510.183 174.577 509.183C214.577 509.183 254.577 509.484 294.577 509.283C299.275 508.984 303.877 510.084 308.577 509.885C330.577 510.084 352.577 510.186 374.577 510.283C379.577 510.283 384.677 510.584 389.677 510.084C392.777 490.084 396.677 470.283 400.077 450.385C407.177 413.283 421.877 376.885 446.877 348.186C460.877 331.385 478.177 317.385 497.377 306.785C508.471 300.388 520.671 296.088 532.871 292.388Z" fill="#107BD4" stroke="#107BD4" stroke-width="0.094"/>
<path d="M511.471 499.287C530.471 499.389 549.573 499.187 568.671 499.389C576.271 499.389 584.071 503.588 587.171 510.787C579.971 511.287 572.771 510.889 565.571 511.088C546.671 510.889 527.769 511.19 508.871 510.889C509.571 506.988 510.269 502.988 511.471 499.287ZM363.971 592.988C366.771 592.488 369.573 592.488 372.271 593.088C365.271 629.889 358.971 666.889 352.171 703.69C351.471 707.588 346.57 706.19 343.871 705.889C343.769 705.19 343.671 703.69 343.571 702.889C349.871 667.69 355.969 632.389 362.671 597.19C363.171 595.787 363.571 594.389 363.971 592.988Z" fill="#0D69B3" stroke="#0D69B3" stroke-width="0.094"/>
<path d="M520.217 154.534C519.417 153.034 519.318 151.234 519.318 149.534L518.517 149.634C517.318 145.234 513.619 141.034 508.818 140.834C505.217 140.534 500.717 140.634 498.619 144.034C494.619 149.434 496.517 156.334 496.318 162.434C496.318 162.834 496.419 163.534 496.419 163.934C496.419 168.034 495.919 172.034 495.219 176.034C494.619 177.234 494.32 178.534 494.32 179.934C492.621 189.334 489.219 198.634 484.621 207.134C483.721 208.334 483.019 209.634 482.721 211.034C479.721 216.234 476.121 221.034 472.421 225.834C471.82 226.334 471.32 226.934 470.82 227.534C468.219 230.734 465.421 233.434 462.519 236.234C461.82 236.634 461.32 237.134 460.719 237.534C457.32 240.834 453.519 243.934 449.419 246.434C448.919 246.734 448.419 247.134 447.818 247.534C422.217 264.434 391.119 271.434 360.818 271.734C335.119 272.534 309.217 267.034 286.017 255.934C285.619 255.734 284.619 255.334 284.217 255.134C280.318 253.034 276.318 251.234 272.717 248.634C271.917 248.234 271.117 247.734 270.217 247.334C266.517 245.134 263.017 242.734 259.717 239.934C258.617 238.934 257.417 238.134 256.217 237.234C252.617 234.334 248.917 231.234 245.819 227.734C245.019 226.834 244.217 226.034 243.419 225.234C232.521 213.934 224.021 200.134 219.521 185.134C215.219 173.234 215.821 160.234 215.321 147.734C211.719 142.234 204.121 139.134 198.121 142.534C195.621 144.334 195.321 147.634 193.421 149.934C190.321 182.934 204.421 215.834 226.921 239.634C226.921 240.434 227.321 240.934 228.023 241.234C232.023 244.934 235.921 248.734 239.921 252.334C240.621 253.034 241.421 253.734 242.321 254.334C246.321 257.634 250.621 260.634 254.821 263.734C255.621 264.334 256.421 264.834 257.321 265.334C262.821 268.534 268.019 272.334 273.921 274.534C274.321 274.834 275.021 275.334 275.421 275.534C294.421 284.634 314.921 290.834 335.921 292.834C338.221 292.834 340.521 293.034 342.821 293.534C352.821 294.134 362.821 293.834 372.821 293.634C403.719 290.934 435.621 283.434 461.421 265.234L461.721 265.634C462.521 264.934 463.221 264.334 464.021 263.734C468.123 260.734 472.123 257.534 476.123 254.234C477.021 253.534 478.021 252.734 478.923 251.834C483.322 247.034 488.423 242.634 492.123 237.134L492.723 237.434C493.023 236.934 493.523 235.934 493.825 235.434C497.223 230.834 500.325 226.034 503.325 221.234C503.523 220.934 504.023 220.434 504.223 220.134L503.825 219.734C504.125 219.334 504.825 218.534 505.125 218.134C510.625 206.934 515.523 195.234 517.225 182.834C517.925 182.534 518.326 181.934 518.326 181.234C518.427 177.234 519.826 173.434 519.427 169.434C520.316 164.534 520.417 159.534 520.217 154.534Z" fill="white" stroke="white" stroke-width="0.094"/>
<mask id="mask0_13_84" style="mask-type:luminance" maskUnits="userSpaceOnUse" x="192" y="140" width="329" height="154">
<path d="M520.217 154.534C519.417 153.034 519.318 151.234 519.318 149.534L518.517 149.634C517.318 145.234 513.619 141.034 508.818 140.834C505.217 140.534 500.717 140.634 498.619 144.034C494.619 149.434 496.517 156.334 496.318 162.434C496.318 162.834 496.419 163.534 496.419 163.934C496.419 168.034 495.919 172.034 495.219 176.034C494.619 177.234 494.32 178.534 494.32 179.934C492.621 189.334 489.219 198.634 484.621 207.134C483.721 208.334 483.019 209.634 482.721 211.034C479.721 216.234 476.121 221.034 472.421 225.834C471.82 226.334 471.32 226.934 470.82 227.534C468.219 230.734 465.421 233.434 462.519 236.234C461.82 236.634 461.32 237.134 460.719 237.534C457.32 240.834 453.519 243.934 449.419 246.434C448.919 246.734 448.419 247.134 447.818 247.534C422.217 264.434 391.119 271.434 360.818 271.734C335.119 272.534 309.217 267.034 286.017 255.934C285.619 255.734 284.619 255.334 284.217 255.134C280.318 253.034 276.318 251.234 272.717 248.634C271.917 248.234 271.117 247.734 270.217 247.334C266.517 245.134 263.017 242.734 259.717 239.934C258.617 238.934 257.417 238.134 256.217 237.234C252.617 234.334 248.917 231.234 245.819 227.734C245.019 226.834 244.217 226.034 243.419 225.234C232.521 213.934 224.021 200.134 219.521 185.134C215.219 173.234 215.821 160.234 215.321 147.734C211.719 142.234 204.121 139.134 198.121 142.534C195.621 144.334 195.321 147.634 193.421 149.934C190.321 182.934 204.421 215.834 226.921 239.634C226.921 240.434 227.321 240.934 228.023 241.234C232.023 244.934 235.921 248.734 239.921 252.334C240.621 253.034 241.421 253.734 242.321 254.334C246.321 257.634 250.621 260.634 254.821 263.734C255.621 264.334 256.421 264.834 257.321 265.334C262.821 268.534 268.019 272.334 273.921 274.534C274.321 274.834 275.021 275.334 275.421 275.534C294.421 284.634 314.921 290.834 335.921 292.834C338.221 292.834 340.521 293.034 342.821 293.534C352.821 294.134 362.821 293.834 372.821 293.634C403.719 290.934 435.621 283.434 461.421 265.234L461.721 265.634C462.521 264.934 463.221 264.334 464.021 263.734C468.123 260.734 472.123 257.534 476.123 254.234C477.021 253.534 478.021 252.734 478.923 251.834C483.322 247.034 488.423 242.634 492.123 237.134L492.723 237.434C493.023 236.934 493.523 235.934 493.825 235.434C497.223 230.834 500.325 226.034 503.325 221.234C503.523 220.934 504.023 220.434 504.223 220.134L503.825 219.734C504.125 219.334 504.825 218.534 505.125 218.134C510.625 206.934 515.523 195.234 517.225 182.834C517.925 182.534 518.326 181.934 518.326 181.234C518.427 177.234 519.826 173.434 519.427 169.434C520.316 164.534 520.417 159.534 520.217 154.534V154.534Z" fill="white"/>
</mask>
<g mask="url(#mask0_13_84)">
<path d="M185.738 151.156C193.844 153.699 212.467 147.301 217.738 153.156M190.405 175.822C198.173 173.119 214.83 166.719 221.738 170.489M198.405 200.489C202.16 201.705 209.562 195.108 213.239 193.175C218.709 190.298 224.321 188.093 230.405 187.156M210.405 226.489C214.278 220.985 218.914 216.414 224.509 212.504C230.055 208.63 245.227 198.279 251.738 201.822M221.738 245.156C226.134 241.661 227.924 235.479 232.54 231.807C238.124 227.365 246.679 226.568 252.405 223.822M240.571 258.988C241.886 249.32 251.703 237.653 261.071 238.488M255.071 272.489C260.021 271.993 264.209 260.913 267.556 257.158C272.572 251.533 277.768 249.803 284.403 247.822M283.737 284.489C283.417 277.493 290.646 257.434 299.071 258.489M305.071 291.156C304.72 282.888 308.995 258.019 319.071 257.156M327.071 304.489C325.16 292.927 325.284 276.201 334.403 267.822M354.405 307.156C353.388 297.518 343.811 278.035 354.405 270.489M383.737 300.489C379.165 295.188 376.507 274.278 378.403 268.489M411.737 295.822C408.211 289.419 403.841 283.406 402.505 275.973C401.707 271.531 403.106 265.203 402.403 261.822M435.071 285.822C427.422 280.819 425.299 262.431 427.737 254.489M457.737 275.822C452.297 264.151 446.496 255.102 446.403 241.822M479.737 254.489C471.283 248.802 460.495 238.464 461.737 227.156M503.071 236.489C490.226 233.643 474.811 222.15 467.071 211.822M513.737 214.489C504.471 212.502 473.854 200.557 475.737 188.489M523.737 191.156C510.827 186.423 492.045 182.168 481.737 173.156M530.403 169.822C522.271 170.518 510.621 166.581 502.356 165.155C493.178 163.572 484.668 160.479 475.737 158.488M522.403 149.156C506.718 150.095 492.001 144.728 477.737 139.823" stroke="#D1D1D1" stroke-width="2"/>
</g>
<defs>
<linearGradient id="paint0_linear_13_84" x1="356.621" y1="119.587" x2="356.621" y2="707.352" gradientUnits="userSpaceOnUse">
<stop stop-color="#F7E830"/>
<stop offset="1" stop-color="#FDCB06"/>
</linearGradient>
<radialGradient id="paint1_radial_13_84" cx="0" cy="0" r="1" gradientUnits="userSpaceOnUse" gradientTransform="translate(353.556 387.666) scale(478.08 478.08)">
<stop offset="0.596" stop-color="#F29405"/>
<stop offset="0.736" stop-color="#F7D01E"/>
<stop offset="1" stop-color="#FDCB06"/>
</radialGradient>
<linearGradient id="paint2_linear_13_84" x1="520.17" y1="140.8" x2="520.337" y2="168.633" gradientUnits="userSpaceOnUse">
<stop stop-color="#FADA1C"/>
<stop offset="1" stop-color="#FDCB06"/>
</linearGradient>
<linearGradient id="paint3_linear_13_84" x1="192.785" y1="139.467" x2="192.618" y2="167.3" gradientUnits="userSpaceOnUse">
<stop stop-color="#FADA1C"/>
<stop offset="1" stop-color="#FDCB06"/>
</linearGradient>
</defs>
</svg>
