<?xml version="1.0" encoding="UTF-8"?><svg id="uuid-df269a35-31f4-4dfe-b3e8-0e45d183bca0" xmlns="http://www.w3.org/2000/svg" xmlns:xlink="http://www.w3.org/1999/xlink" viewBox="0 0 86 86">
<title>Meesho icon logo - Brandlogos.net</title><defs><clipPath id="uuid-4c241d4f-0de0-4ab0-b174-76a377e47cc0"><rect width="86" height="86" style="fill:none;"/></clipPath></defs><g style="clip-path:url(#uuid-4c241d4f-0de0-4ab0-b174-76a377e47cc0);"><path d="M72.57,0H13.43C6.01,0,0,6.01,0,13.43v59.15c0,7.41,6.01,13.43,13.43,13.43h59.15c7.41,0,13.43-6.01,13.43-13.43V13.43c0-7.41-6.01-13.43-13.43-13.43Z" style="fill:#580a46;"/><path d="M43,54.79c-2.33,0-4.3-1.97-4.3-4.3v-19.7c.02-3.64-3.01-6.59-6.61-6.53-3.59-.06-6.62,2.89-6.61,6.53v19.7c0,2.38-1.93,4.3-4.3,4.3s-4.3-2-4.3-4.3v-19.63c0-4.2,1.7-8.01,4.46-10.76s6.55-4.46,10.76-4.46,8.15,1.77,10.91,4.62c2.76-2.85,6.63-4.62,10.91-4.62s8,1.7,10.76,4.46c2.75,2.75,4.46,6.56,4.46,10.76v19.63c0,2.31-1.99,4.3-4.3,4.3s-4.3-1.93-4.3-4.3v-19.7c.02-3.64-3.01-6.59-6.61-6.53-3.59-.06-6.62,2.89-6.61,6.53v19.7c0,2.34-1.97,4.3-4.3,4.3h0Z" style="fill:#ff9d00;"/><path d="M35.57,66.78c.13-.1.19-.24.19-.42,0-.58-.08-1.1-.24-1.56-.16-.46-.39-.85-.68-1.18-.3-.32-.66-.57-1.08-.75-.42-.17-.9-.26-1.42-.26-.72,0-1.36.16-1.92.5-.56.33-1,.78-1.32,1.36-.32.58-.48,1.25-.48,2.02s.16,1.47.5,2.05c.33.58.8,1.02,1.4,1.34.61.31,1.33.47,2.17.47.4,0,.82-.05,1.29-.16.46-.11.87-.27,1.22-.5.18-.11.31-.24.39-.4.08-.15.1-.3.08-.45-.02-.15-.08-.27-.17-.37-.1-.1-.23-.16-.39-.17-.16-.01-.35.04-.56.16-.29.16-.6.28-.93.34-.33.06-.63.1-.89.1-.76,0-1.34-.21-1.73-.62-.31-.32-.5-.79-.56-1.37h4.59c.23,0,.41-.05.54-.14h0ZM31.33,64.21c.3-.2.66-.3,1.09-.3.39,0,.71.08.96.25.26.17.45.41.59.72.11.26.18.58.19.94h-3.73c.04-.29.1-.55.2-.78.16-.36.39-.64.68-.84h0Z" style="fill:#fff;"/><path d="M43.99,66.78c.13-.1.19-.24.19-.42,0-.58-.08-1.1-.24-1.56-.16-.46-.39-.85-.68-1.18-.3-.32-.66-.57-1.08-.75-.42-.17-.9-.26-1.42-.26-.72,0-1.36.16-1.92.5-.56.33-1,.78-1.32,1.36-.32.58-.48,1.25-.48,2.02s.16,1.47.5,2.05c.33.58.8,1.02,1.4,1.34.61.31,1.33.47,2.17.47.4,0,.82-.05,1.29-.16.46-.11.87-.27,1.22-.5.18-.11.31-.24.39-.4.08-.15.1-.3.08-.45-.02-.15-.08-.27-.17-.37-.1-.1-.23-.16-.39-.17-.16-.01-.35.04-.56.16-.29.16-.6.28-.93.34-.33.06-.63.1-.89.1-.76,0-1.34-.21-1.73-.62-.31-.32-.5-.79-.56-1.37h4.59c.23,0,.41-.05.54-.14h0ZM39.75,64.21c.3-.2.66-.3,1.09-.3.39,0,.71.08.96.25.26.17.45.41.59.72.11.26.18.58.19.94h-3.73c.04-.29.1-.55.2-.78.16-.36.39-.64.68-.84h0Z" style="fill:#fff;"/><path d="M49.65,66.01l-1.52-.29c-.29-.05-.51-.15-.65-.29-.14-.14-.21-.32-.21-.53,0-.28.12-.51.36-.68.24-.17.6-.26,1.1-.26.26,0,.54.03.83.11.29.07.59.19.91.35.17.08.33.11.46.08.14-.02.25-.09.34-.2.09-.11.15-.23.18-.37.03-.14.02-.27-.04-.4-.05-.13-.16-.24-.31-.32-.37-.2-.74-.35-1.13-.45-.39-.1-.81-.14-1.25-.14-.62,0-1.17.1-1.64.29-.48.19-.85.46-1.12.82-.27.36-.4.78-.4,1.26,0,.54.16.97.49,1.32.33.34.81.57,1.44.69l1.52.29c.31.06.55.15.71.28.16.13.24.31.24.54,0,.27-.12.5-.36.66-.24.17-.6.25-1.09.25-.35,0-.69-.04-1.05-.11-.36-.08-.73-.21-1.14-.4-.16-.08-.31-.11-.45-.08-.14.03-.25.1-.33.2-.09.1-.14.22-.15.36-.01.14.01.27.08.41.06.14.18.26.34.36.39.22.82.38,1.31.47.49.09.95.14,1.38.14.96,0,1.73-.21,2.31-.63.58-.42.86-1,.86-1.74,0-.55-.17-.98-.51-1.31-.34-.32-.84-.55-1.5-.67h0Z" style="fill:#fff;"/><path d="M58.93,62.95c-.39-.22-.88-.33-1.47-.33s-1.13.14-1.6.42c-.34.2-.62.48-.83.81v-3.53c0-.31-.08-.55-.25-.71-.17-.16-.4-.24-.71-.24s-.54.08-.7.24c-.16.16-.24.4-.24.71v9.03c0,.31.08.55.24.72.16.17.4.25.7.25.64,0,.96-.32.96-.97v-3.33c0-.58.16-1.04.5-1.39.33-.35.77-.52,1.33-.52.45,0,.79.13,1.01.4.22.26.33.68.33,1.26v3.59c0,.31.08.55.25.72.17.17.4.25.71.25s.54-.08.7-.25c.16-.17.24-.41.24-.72v-3.68c0-.69-.1-1.26-.29-1.71-.19-.45-.48-.79-.86-1.01h-.01Z" style="fill:#fff;"/><path d="M67.33,63.07c-.57-.31-1.24-.47-2.01-.47-.58,0-1.1.09-1.57.27s-.86.44-1.2.78c-.33.34-.59.75-.77,1.22-.18.47-.27,1-.27,1.6,0,.79.16,1.48.47,2.06.31.58.76,1.03,1.32,1.35.57.31,1.24.47,2.01.47.58,0,1.1-.09,1.57-.27.46-.18.86-.43,1.2-.78.33-.34.59-.75.77-1.22.18-.48.27-1.01.27-1.61,0-.79-.16-1.47-.47-2.05-.31-.58-.76-1.02-1.32-1.34h0ZM66.98,67.8c-.16.36-.38.63-.66.81-.28.18-.61.27-.99.27-.57,0-1.02-.21-1.37-.62-.35-.41-.52-1.02-.52-1.81,0-.54.08-.98.24-1.35.16-.36.38-.63.66-.81.28-.18.61-.27.99-.27.57,0,1.02.2,1.37.6s.52,1,.52,1.81c0,.54-.08.98-.24,1.35Z" style="fill:#fff;"/><path d="M22.02,70.33c-.46,0-.85-.39-.85-.85v-3.88c0-.72-.59-1.3-1.3-1.29-.71-.01-1.3.57-1.3,1.29v3.88c0,.47-.38.85-.85.85s-.85-.39-.85-.85v-3.86c0-.83.33-1.58.88-2.12.54-.54,1.29-.88,2.12-.88s1.6.35,2.15.91c.54-.56,1.31-.91,2.15-.91s1.58.33,2.12.88c.54.54.88,1.29.88,2.12v3.86c0,.45-.39.85-.85.85s-.85-.38-.85-.85v-3.88c0-.72-.59-1.3-1.3-1.29-.71-.01-1.3.57-1.3,1.29v3.88c0,.46-.39.85-.85.85Z" style="fill:#fff;"/></g></svg>