<?xml version="1.0" encoding="UTF-8"?><svg id="uuid-c5565d9f-bf1b-465c-a10b-802eacd2dae7" xmlns="http://www.w3.org/2000/svg" viewBox="0 0 520.94 169.73">
<title>Zepto logo - Brandlogos.net</title><path d="M329.48,38.26c-.06-5.63,4.46-10.25,10.09-10.3.08,0,.17,0,.25,0h7.28v-15.15c-.88-6.13,3.37-11.81,9.5-12.69.54-.08,1.09-.12,1.64-.11,4.98,0,9.36,3.28,10.78,8.05.46,1.54.58,3.17.35,4.76v15.15h23.67c4.19-.05,7.99,2.46,9.59,6.34,2.16,5.29-.37,11.33-5.66,13.49-1.24.51-2.57.77-3.92.77h-23.67v36.48c0,17.79,9.92,26.88,23.67,26.88,5.75,0,10.41,4.66,10.42,10.41,0,5.74-4.65,10.41-10.39,10.41-.01,0-.03,0-.04,0-26.12,0-45.94-18.38-45.94-47.7v-36.48h-7.28c-5.69-.02-10.3-4.62-10.34-10.3h0ZM238.35,160.08v-39.62c9.27,8.14,21.2,12.6,33.54,12.53,29.1,0,51.13-23.64,51.13-53.58s-22.03-53.57-51.13-53.57c-12.38-.11-24.35,4.43-33.54,12.72v-1.39c-.88-6.14-6.57-10.4-12.71-9.52-2.13.31-4.13,1.22-5.76,2.63-2.04,1.77-3.38,4.22-3.76,6.9v122.92c.88,6.14,6.56,10.41,12.7,9.53,2.14-.3,4.14-1.22,5.77-2.63,2.04-1.77,3.38-4.22,3.76-6.9h0ZM269.47,46.44c17.36,0,31.12,14.15,31.12,32.96s-13.75,32.96-31.12,32.96-31.12-14.15-31.12-32.96v-1.43c.62-17.97,13.75-31.53,31.12-31.53ZM100.44,79.24c.08-10.19,3.05-20.15,8.55-28.73,5.5-8.57,13.32-15.39,22.56-19.69,18.83-8.75,41.03-5.84,56.96,7.48,2.45,2.12,3.9,5.16,4.02,8.4.02,3.02-1.15,5.92-3.24,8.09l-30.94,36.93c-1.82,2.37-4.67,3.72-7.65,3.63-4.2.23-8.08-2.22-9.68-6.11-.52-1.26-.78-2.61-.75-3.97-.13-2.45.73-4.86,2.4-6.66l24.35-28.61c-3.99-2.45-8.59-3.71-13.27-3.64-17.28,0-30.97,14.53-30.97,32.87s13.49,32.87,30.97,32.87c8.06.08,15.79-3.22,21.31-9.1l1.23-1.02c2.6-2.18,4.77-3.99,8.43-3.99,2.88-.13,5.68.95,7.74,2.98,2.06,2.02,3.19,4.81,3.13,7.7-.21,2.72-1.35,5.28-3.24,7.25-9.77,11-23.88,17.15-38.59,16.8-14.22.22-27.92-5.34-37.95-15.42-10.05-10.09-15.59-23.81-15.36-38.05ZM57.32,48.27H12.66c-2.73-.02-5.34-1.11-7.26-3.04-4.02-4.04-4.04-10.56-.05-14.63,1.94-1.94,4.57-3.02,7.32-2.99h66.89c4.19-.05,7.98,2.47,9.55,6.36.52,1.26.77,2.6.75,3.97-.1,2.75-1.26,5.36-3.22,7.29l-54.38,65.07h47.3c4.19-.05,7.98,2.48,9.55,6.37,1.57,3.87.67,8.3-2.28,11.26-1.93,1.93-4.54,3.02-7.27,3.04H10.3c-2.76-.03-5.39-1.15-7.32-3.13C1.05,125.86-.02,123.2,0,120.43c.07-2.73,1.16-5.34,3.03-7.32L57.33,48.26h0ZM423.06,49.59c-5.87,8.79-9.01,19.12-9.01,29.69-.52,28.99,22.56,52.92,51.56,53.44.63.01,1.25.01,1.88,0,29.52,0,53.45-23.92,53.45-53.43,0-29.52-23.92-53.45-53.43-53.45-17.85,0-34.53,8.91-44.45,23.75ZM467.49,46.4c17.73,0,31.06,14.74,31.06,32.88s-13.31,32.88-31.06,32.88-31.06-14.73-31.06-32.88,13.33-32.89,31.06-32.89Z" style="fill:#950edb; fill-rule:evenodd;"/></svg>